<svg width="18" height="13" viewBox="0 0 18 13" fill="none" xmlns="http://www.w3.org/2000/svg">
<path fill-rule="evenodd" clip-rule="evenodd" d="M17.712 0.91256L17.1224 0.29906C16.9371 0.106133 16.6901 0 16.4264 0C16.1627 0 15.9155 0.106133 15.7303 0.29906L7.44542 8.91942L2.26917 3.53329C2.0839 3.34067 1.83673 3.23439 1.57303 3.23439C1.30946 3.23439 1.06244 3.34067 0.877025 3.53329L0.287269 4.14664C0.101854 4.33987 0 4.59721 0 4.8713C0 5.14554 0.101854 5.40272 0.287269 5.59565L6.13157 11.6764C6.13932 11.6879 6.14752 11.6985 6.15703 11.7083L6.74679 12.3117C6.93206 12.5039 7.17923 12.6 7.44498 12.6H7.44806C7.71191 12.6 7.95908 12.5039 8.14406 12.3117L8.73396 11.7029C8.74347 11.6932 8.75152 11.6851 8.75635 11.6769L17.7119 2.35944C18.096 1.96064 18.096 1.31181 17.712 0.91256Z" fill="white"/>
</svg>
